<?xml version="1.0" encoding="UTF-8" standalone="no"?>
<!-- Created with Inkscape (http://www.inkscape.org/) -->

<svg
   xmlns:dc="http://purl.org/dc/elements/1.1/"
   xmlns:cc="http://creativecommons.org/ns#"
   xmlns:rdf="http://www.w3.org/1999/02/22-rdf-syntax-ns#"
   xmlns:svg="http://www.w3.org/2000/svg"
   xmlns="http://www.w3.org/2000/svg"
   xmlns:xlink="http://www.w3.org/1999/xlink"
   version="1.0"
   width="128"
   height="128"
   id="svg2">
  <defs
     id="defs4">
    <linearGradient
       id="linearGradient4126">
      <stop
         id="stop4128"
         style="stop-color:#555555;stop-opacity:1"
         offset="0" />
      <stop
         id="stop4130"
         style="stop-color:#000000;stop-opacity:1"
         offset="1" />
    </linearGradient>
    <linearGradient
       x1="58.929012"
       y1="58.6684"
       x2="58.929012"
       y2="5.3364"
       id="linearGradient3905"
       xlink:href="#linearGradient4126"
       gradientUnits="userSpaceOnUse" />
    <linearGradient
       id="linearGradient4832-3-0-6-8-2">
      <stop
         id="stop4834-2-6-2-3-1"
         style="stop-color:#c8d2d2;stop-opacity:1"
         offset="0" />
      <stop
         id="stop4836-0-3-7-2-6"
         style="stop-color:#ffffff;stop-opacity:1"
         offset="1" />
    </linearGradient>
    <linearGradient
       id="linearGradient16903">
      <stop
         id="stop16905"
         style="stop-color:#4f5a5e;stop-opacity:1"
         offset="0" />
      <stop
         id="stop16907"
         style="stop-color:#6e828c;stop-opacity:1"
         offset="1" />
    </linearGradient>
    <linearGradient
       x1="17.591623"
       y1="7"
       x2="17.591623"
       y2="-0.02451775"
       id="linearGradient17153"
       xlink:href="#linearGradient16903"
       gradientUnits="userSpaceOnUse"
       gradientTransform="matrix(-5.4215808,0,0,5.4215808,130.29624,0.40232082)" />
    <linearGradient
       x1="40.006763"
       y1="12.910877"
       x2="40.006763"
       y2="7.0924568"
       id="linearGradient17156"
       xlink:href="#linearGradient4222"
       gradientUnits="userSpaceOnUse"
       gradientTransform="matrix(-4.2184976,0,0,4.2184787,212.87149,-3.1806279)" />
    <linearGradient
       id="linearGradient4222">
      <stop
         id="stop4224"
         style="stop-color:#ffffff;stop-opacity:1"
         offset="0" />
      <stop
         id="stop4226"
         style="stop-color:#919191;stop-opacity:0.46399999"
         offset="1" />
    </linearGradient>
    <linearGradient
       x1="38.382198"
       y1="5.90625"
       x2="38.382198"
       y2="22.697742"
       id="linearGradient17159"
       xlink:href="#linearGradient4222"
       gradientUnits="userSpaceOnUse"
       gradientTransform="matrix(-5.7858768,0,0,5.7858934,273.96708,-20.240426)" />
    <linearGradient
       x1="39.905758"
       y1="6.1230369"
       x2="39.905758"
       y2="24.0341"
       id="linearGradient17162"
       xlink:href="#linearGradient4832-3-0-6-8-2"
       gradientUnits="userSpaceOnUse"
       gradientTransform="matrix(-5.4215808,0,0,5.4215808,260.96627,-15.206882)" />
    <linearGradient
       x1="32.015705"
       y1="24.011269"
       x2="32.015705"
       y2="5"
       id="linearGradient17164"
       xlink:href="#linearGradient16903"
       gradientUnits="userSpaceOnUse"
       gradientTransform="matrix(-5.4215808,0,0,5.4215808,260.96627,-15.206882)" />
    <linearGradient
       id="linearGradient3283">
      <stop
         id="stop3285"
         style="stop-color:#000000;stop-opacity:1"
         offset="0" />
      <stop
         id="stop3287"
         style="stop-color:#000000;stop-opacity:0"
         offset="1" />
    </linearGradient>
    <radialGradient
       cx="10.471204"
       cy="20.146597"
       r="9.2146597"
       fx="10.471204"
       fy="20.146597"
       id="radialGradient17214"
       xlink:href="#linearGradient3283"
       gradientUnits="userSpaceOnUse"
       gradientTransform="matrix(-5.2952823,0,0,1.7650942,135.09706,76.743613)" />
  </defs>
  <metadata
     id="metadata7">
    <rdf:RDF>
      <cc:Work
         rdf:about="">
        <dc:format>image/svg+xml</dc:format>
        <dc:type
           rdf:resource="http://purl.org/dc/dcmitype/StillImage" />
        <dc:title></dc:title>
      </cc:Work>
    </rdf:RDF>
  </metadata>
  <g
     transform="matrix(1.3236014,0,0,1.295062,-16.444472,-9.5733432)"
     id="g3913"
     style="font-size:43.94123459px;font-style:normal;font-variant:normal;font-weight:normal;font-stretch:normal;line-height:125%;letter-spacing:0px;word-spacing:0px;opacity:0.19232046;fill:url(#linearGradient3905);fill-opacity:1;stroke:none;font-family:Nokia Pure Headline;-inkscape-font-specification:Nokia Pure Headline" />
  <path
     d="m 30.85484,112.30427 a 48.794232,16.264746 0 0 0 97.58846,0 48.794232,16.264746 0 1 0 -97.58846,0 z"
     id="path3281"
     style="opacity:0.3;fill:url(#radialGradient17214);fill-opacity:1;fill-rule:evenodd;stroke:none;stroke-width:1;marker:none;visibility:visible;display:inline;overflow:visible;enable-background:accumulate" />
  <path
     d="M 65.789353,14.611811 123.88263,74.568733 80.409467,118.47478 19.705919,60.69525 l 0,-46.083439 z M 44.10303,30.876554 c -4.489068,0 -8.13237,3.643302 -8.13237,8.132371 0,4.489071 3.643302,8.132374 8.13237,8.132374 4.48907,0 8.132371,-3.643303 8.132371,-8.132374 0,-4.489069 -3.643301,-8.132371 -8.132371,-8.132371 z"
     id="path2463"
     style="fill:url(#linearGradient17162);fill-opacity:1;fill-rule:evenodd;stroke:url(#linearGradient17164);stroke-width:3.9000001;stroke-linecap:butt;stroke-linejoin:round;stroke-miterlimit:4;stroke-opacity:1;stroke-dasharray:none" />
  <path
     d="M 64.344721,18.806259 118.42227,74.800853 80.439124,113.3388 23.420067,59.010318 23.660217,18.566109 z"
     id="path3265"
     style="opacity:0.6;fill:none;stroke:url(#linearGradient17159);stroke-width:4;stroke-linecap:butt;stroke-linejoin:miter;stroke-miterlimit:4;stroke-opacity:1;stroke-dasharray:none" />
  <path
     d="m 44.13157,28.853445 c -6.383802,-0.225063 -11.647549,6.554642 -9.830569,12.684206 1.349238,6.014784 8.755554,9.481104 14.226995,6.614549 5.631687,-2.487588 7.594764,-10.407355 3.734804,-15.21709 -1.875095,-2.537365 -4.97212,-4.106103 -8.13123,-4.081665 z"
     id="path3294"
     style="opacity:0.6;fill:none;stroke:url(#linearGradient17156);stroke-width:2.0330925px;stroke-linecap:butt;stroke-linejoin:miter;stroke-opacity:1" />
  <path
     d="M 40.840163,35.642595 C 34.827531,32.458941 26.993316,31.483598 19.550308,31.317589 16.204395,31.242989 12.822431,31.924264 9.5391965,31.143333 5.3605568,30.149395 2.5129196,27.087921 2.9294814,24.289105 3.4886695,20.532148 8.5354885,17.758684 13.268767,15.77398 17.467282,14.013506 20.698741,10.876385 22.406493,7.562371 23.269318,5.888008 21.762487,4.1299108 19.345508,3.5901977 17.149791,3.099891 14.850032,2.9060884 12.615727,3.4039257 9.2150835,4.1616552 5.2007289,5.0860821 3.6187752,7.495375"
     id="path3298"
     style="fill:none;stroke:url(#linearGradient17153);stroke-width:6;stroke-linecap:round;stroke-linejoin:miter;stroke-miterlimit:4;stroke-opacity:1;stroke-dasharray:none" />
  <g
     transform="matrix(0.70710678,0.70710678,-0.70710678,0.70710678,0,0)"
     id="text4851"
     style="font-size:16.31942177px;font-style:normal;font-variant:normal;font-weight:normal;font-stretch:normal;text-align:start;line-height:125%;letter-spacing:0px;word-spacing:0px;writing-mode:lr-tb;text-anchor:start;fill:#1e3264;fill-opacity:1;stroke:none;font-family:Sans;-inkscape-font-specification:Sans">
    <path
       d="m 83.606981,-7.3319912 0,-10.3032288 -3.84877,0 0,-1.378545 9.25936,0 0,1.378545 -3.864707,0 0,10.3032288 z"
       id="path15051" />
    <path
       d="m 90.427989,-7.3319912 0,-11.6817738 1.434325,0 0,4.191414 c 0.669348,-0.775589 1.514004,-1.163387 2.533972,-1.163396 0.626847,9e-6 1.171359,0.12352 1.633536,0.370534 0.462164,0.24703 0.792855,0.588346 0.992074,1.023948 0.199204,0.435616 0.29881,1.067781 0.298818,1.896495 l 0,5.3627788 -1.434324,0 0,-5.3627788 c -7e-6,-0.717156 -0.155392,-1.23909 -0.466156,-1.565804 -0.310776,-0.3267 -0.750369,-0.490053 -1.318781,-0.490061 -0.424989,8e-6 -0.82474,0.110238 -1.199254,0.330692 -0.374522,0.220468 -0.641465,0.519285 -0.800831,0.896452 -0.159372,0.37718 -0.239057,0.897786 -0.239054,1.56182 l 0,4.6296798 z"
       id="path15053" />
    <path
       d="m 99.52001,-17.364292 0,-1.649473 1.43432,0 0,1.649473 z m 0,10.0323008 0,-8.4625128 1.43432,0 0,8.4625128 z"
       id="path15055" />
    <path
       d="m 102.57193,-9.8579954 1.41839,-0.2231176 c 0.0797,0.56842 0.30147,1.0040291 0.66537,1.3068292 0.36389,0.3028029 0.87254,0.4542036 1.52596,0.4542026 0.65872,1e-6 1.14745,-0.1341347 1.4662,-0.4024076 0.31873,-0.2682701 0.4781,-0.5830242 0.47811,-0.9442634 -1e-5,-0.3240484 -0.14079,-0.5790388 -0.42233,-0.7649728 -0.19656,-0.127492 -0.6853,-0.289518 -1.4662,-0.486077 -1.05184,-0.265611 -1.78096,-0.495369 -2.18735,-0.689272 -0.40639,-0.193895 -0.7145,-0.462166 -0.92434,-0.804815 -0.20984,-0.342639 -0.31475,-0.721141 -0.31475,-1.135507 0,-0.377168 0.0863,-0.726452 0.25897,-1.047853 0.17265,-0.321388 0.40772,-0.588331 0.70521,-0.800831 0.22312,-0.164674 0.52725,-0.304122 0.91239,-0.418345 0.38514,-0.114206 0.79817,-0.171313 1.2391,-0.171322 0.66403,9e-6 1.24706,0.09563 1.74908,0.286865 0.502,0.191251 0.87254,0.450226 1.1116,0.776925 0.23904,0.326715 0.40373,0.763652 0.49404,1.310813 l -1.40245,0.191244 c -0.0637,-0.435604 -0.24835,-0.775591 -0.55381,-1.019964 -0.30546,-0.244359 -0.73708,-0.366542 -1.29487,-0.36655 -0.65873,8e-6 -1.12887,0.10891 -1.41042,0.326707 -0.28156,0.217812 -0.42233,0.472803 -0.42233,0.764973 0,0.185937 0.0584,0.353275 0.17531,0.502014 0.11687,0.154062 0.30014,0.281558 0.54982,0.382486 0.14343,0.05313 0.56576,0.175312 1.26699,0.36655 1.01464,0.270932 1.72251,0.492721 2.12359,0.665367 0.40108,0.172654 0.71583,0.423661 0.94427,0.75302 0.22842,0.329367 0.34263,0.738414 0.34264,1.2271439 -1e-5,0.4781101 -0.13945,0.928328 -0.41834,1.3506553 -0.27891,0.4223295 -0.68131,0.7490363 -1.20723,0.9801215 -0.52592,0.2310855 -1.1209,0.3466281 -1.78493,0.3466283 -1.09965,-2e-7 -1.93767,-0.2284293 -2.51405,-0.6852882 -0.57639,-0.4568579 -0.94427,-1.1341769 -1.10364,-2.0319592 z"
       id="path15057" />
    <path
       d="m 115.83943,-17.364292 0,-1.649473 1.43433,0 0,1.649473 z m 0,10.0323008 0,-8.4625128 1.43433,0 0,8.4625128 z"
       id="path15059" />
    <path
       d="m 118.89136,-9.8579954 1.41838,-0.2231176 c 0.0797,0.56842 0.30148,1.0040291 0.66537,1.3068292 0.36389,0.3028029 0.87254,0.4542036 1.52596,0.4542026 0.65872,1e-6 1.14746,-0.1341347 1.4662,-0.4024076 0.31873,-0.2682701 0.4781,-0.5830242 0.47811,-0.9442634 -1e-5,-0.3240484 -0.14078,-0.5790388 -0.42233,-0.7649728 -0.19656,-0.127492 -0.68529,-0.289518 -1.4662,-0.486077 -1.05184,-0.265611 -1.78095,-0.495369 -2.18734,-0.689272 -0.4064,-0.193895 -0.71451,-0.462166 -0.92434,-0.804815 -0.20984,-0.342639 -0.31476,-0.721141 -0.31476,-1.135507 0,-0.377168 0.0863,-0.726452 0.25898,-1.047853 0.17264,-0.321388 0.40771,-0.588331 0.70521,-0.800831 0.22311,-0.164674 0.52724,-0.304122 0.91238,-0.418345 0.38514,-0.114206 0.79818,-0.171313 1.2391,-0.171322 0.66404,9e-6 1.24706,0.09563 1.74908,0.286865 0.50201,0.191251 0.87254,0.450226 1.1116,0.776925 0.23905,0.326715 0.40373,0.763652 0.49405,1.310813 l -1.40245,0.191244 c -0.0638,-0.435604 -0.24836,-0.775591 -0.55381,-1.019964 -0.30547,-0.244359 -0.73709,-0.366542 -1.29488,-0.36655 -0.65873,8e-6 -1.12887,0.10891 -1.41042,0.326707 -0.28155,0.217812 -0.42233,0.472803 -0.42233,0.764973 0,0.185937 0.0584,0.353275 0.17531,0.502014 0.11687,0.154062 0.30014,0.281558 0.54982,0.382486 0.14343,0.05313 0.56576,0.175312 1.26699,0.36655 1.01465,0.270932 1.72251,0.492721 2.1236,0.665367 0.40107,0.172654 0.71582,0.423661 0.94426,0.75302 0.22842,0.329367 0.34264,0.738414 0.34265,1.2271439 -1e-5,0.4781101 -0.13946,0.928328 -0.41835,1.3506553 -0.2789,0.4223295 -0.68131,0.7490363 -1.20722,0.9801215 -0.52593,0.2310855 -1.1209,0.3466281 -1.78494,0.3466283 -1.09965,-2e-7 -1.93767,-0.2284293 -2.51405,-0.6852882 -0.57639,-0.4568579 -0.94426,-1.1341769 -1.10363,-2.0319592 z"
       id="path15061" />
  </g>
  <g
     transform="matrix(0.70710678,0.70710678,-0.70710678,0.70710678,0,0)"
     id="text4851-1"
     style="font-size:16.31942177px;font-style:normal;font-variant:normal;font-weight:normal;font-stretch:normal;text-align:start;line-height:125%;letter-spacing:0px;word-spacing:0px;writing-mode:lr-tb;text-anchor:start;fill:#1e3264;fill-opacity:1;stroke:none;font-family:Sans;-inkscape-font-specification:Sans">
    <path
       d="m 86.873686,9.13253 c -0.531237,0.4515471 -1.042547,0.7702854 -1.53393,0.956216 -0.491393,0.185931 -1.01864,0.278896 -1.581741,0.278896 -0.929657,0 -1.644162,-0.227101 -2.143517,-0.6813035 -0.499359,-0.4542017 -0.749037,-1.0345712 -0.749036,-1.7411102 -10e-7,-0.4143577 0.09429,-0.7928595 0.28288,-1.1355067 0.188586,-0.3426404 0.435608,-0.6175522 0.741068,-0.8247364 0.305456,-0.2071757 0.649428,-0.3638888 1.031916,-0.4701396 0.28155,-0.074368 0.706534,-0.1460837 1.274955,-0.2151486 1.158079,-0.1381151 2.010704,-0.3027966 2.557878,-0.494045 0.0053,-0.1965499 0.008,-0.3213891 0.008,-0.374518 -7e-6,-0.5843479 -0.135471,-0.9960517 -0.406392,-1.2351124 C 85.989181,2.8719778 85.444669,2.7099525 84.7222,2.709945 c -0.674667,7.5e-6 -1.172696,0.1182063 -1.494088,0.3545968 -0.321397,0.2364048 -0.559123,0.6547489 -0.713178,1.2550337 l -1.40245,-0.1912432 c 0.127495,-0.6002846 0.337331,-1.0850326 0.629509,-1.4542454 0.292175,-0.3691978 0.714504,-0.6534062 1.266986,-0.852626 0.552478,-0.1992031 1.19261,-0.2988089 1.920401,-0.2988175 0.722469,8.6e-6 1.309479,0.085006 1.761031,0.2549909 0.45154,0.1700022 0.783559,0.3838226 0.996059,0.6414617 0.212485,0.2576546 0.361229,0.5830334 0.446234,0.9761373 0.0478,0.2443728 0.07171,0.6852943 0.07172,1.3227656 l 0,1.9124322 c -8e-6,1.3333925 0.03054,2.1767211 0.09164,2.5299885 0.06108,0.3532694 0.181938,0.6919289 0.362565,1.0159794 l -1.498072,0 C 87.0118,9.8789101 86.916178,9.530954 86.873686,9.13253 z M 86.754159,5.929206 c -0.520612,0.2124965 -1.301521,0.3931149 -2.342729,0.5418558 -0.58967,0.085001 -1.006687,0.1806221 -1.25105,0.2868648 -0.244369,0.1062496 -0.432956,0.2616345 -0.565761,0.4661554 -0.13281,0.2045267 -0.199214,0.4316278 -0.199212,0.6813039 -2e-6,0.3824884 0.144759,0.7012268 0.434282,0.9562162 0.289518,0.254992 0.713174,0.3824873 1.27097,0.3824864 0.552477,9e-7 1.043865,-0.120854 1.474167,-0.3625653 0.430292,-0.2417086 0.746374,-0.5723997 0.948248,-0.9920742 0.15405,-0.3240484 0.231079,-0.802156 0.231085,-1.4343242 z"
       id="path15064" />
    <path
       d="m 94.929807,10.176399 0,-11.6817734 1.434324,0 0,11.6817734 z"
       id="path15066" />
    <path
       d="m 104.11745,9.13253 c -0.53124,0.4515471 -1.04255,0.7702854 -1.53393,0.956216 -0.49139,0.185931 -1.01864,0.278896 -1.58174,0.278896 -0.92966,0 -1.644164,-0.227101 -2.143519,-0.6813035 -0.499359,-0.4542017 -0.749037,-1.0345712 -0.749036,-1.7411102 -10e-7,-0.4143577 0.09429,-0.7928595 0.28288,-1.1355067 0.188586,-0.3426404 0.435608,-0.6175522 0.741068,-0.8247364 0.305456,-0.2071757 0.649428,-0.3638888 1.031917,-0.4701396 0.28155,-0.074368 0.70653,-0.1460837 1.27495,-0.2151486 1.15808,-0.1381151 2.01071,-0.3027966 2.55788,-0.494045 0.005,-0.1965499 0.008,-0.3213891 0.008,-0.374518 -1e-5,-0.5843479 -0.13547,-0.9960517 -0.40639,-1.2351124 -0.36656,-0.3240438 -0.91107,-0.4860691 -1.63354,-0.4860766 -0.67466,7.5e-6 -1.17269,0.1182063 -1.49408,0.3545968 -0.3214,0.2364048 -0.559128,0.6547489 -0.713183,1.2550337 l -1.40245,-0.1912432 c 0.127495,-0.6002846 0.337331,-1.0850326 0.629509,-1.4542454 0.292175,-0.3691978 0.714504,-0.6534062 1.266984,-0.852626 0.55248,-0.1992031 1.19261,-0.2988089 1.9204,-0.2988175 0.72247,8.6e-6 1.30948,0.085006 1.76103,0.2549909 0.45154,0.1700022 0.78356,0.3838226 0.99606,0.6414617 0.21249,0.2576546 0.36123,0.5830334 0.44624,0.9761373 0.0478,0.2443728 0.0717,0.6852943 0.0717,1.3227656 l 0,1.9124322 c 0,1.3333925 0.0305,2.1767211 0.0916,2.5299885 0.0611,0.3532694 0.18194,0.6919289 0.36257,1.0159794 l -1.49808,0 C 104.25556,9.8789101 104.15994,9.530954 104.11745,9.13253 z m -0.11953,-3.203324 c -0.52061,0.2124965 -1.30152,0.3931149 -2.34273,0.5418558 -0.58967,0.085001 -1.00668,0.1806221 -1.25105,0.2868648 -0.24437,0.1062496 -0.432953,0.2616345 -0.565758,0.4661554 -0.13281,0.2045267 -0.199214,0.4316278 -0.199212,0.6813039 -2e-6,0.3824884 0.144759,0.7012268 0.43428,0.9562162 0.28952,0.254992 0.71318,0.3824873 1.27097,0.3824864 0.55248,9e-7 1.04387,-0.120854 1.47417,-0.3625653 0.43029,-0.2417086 0.74637,-0.5723997 0.94825,-0.9920742 0.15405,-0.3240484 0.23108,-0.802156 0.23108,-1.4343242 z"
       id="path15068" />
    <path
       d="m 109.00212,10.176399 -1.33073,0 0,-11.6817734 1.43432,0 0,4.1675086 c 0.6056,-0.7596523 1.37854,-1.1394822 2.31882,-1.1394908 0.52061,8.6e-6 1.01332,0.1049267 1.47815,0.3147544 0.46483,0.2098445 0.84731,0.5046775 1.14746,0.8844999 0.30014,0.3798374 0.53521,0.8380238 0.70521,1.3745607 0.16999,0.536549 0.25499,1.1102781 0.25499,1.721189 0,1.450264 -0.35858,2.5711607 -1.07574,3.3626934 -0.71717,0.7915346 -1.57776,1.1873012 -2.58178,1.1873012 -0.99872,0 -1.78229,-0.4170158 -2.3507,-1.251049 z m -0.0159,-4.2950038 c 0,1.0146548 0.13812,1.7477531 0.41436,2.199297 0.45155,0.7384127 1.06246,1.107618 1.83275,1.107617 0.62685,10e-7 1.1687,-0.2722547 1.62557,-0.8167679 0.45685,-0.5445096 0.68528,-1.3559644 0.68529,-2.4343669 -1e-5,-1.1049555 -0.21914,-1.9203945 -0.6574,-2.4463195 -0.43827,-0.5259117 -0.96818,-0.7888709 -1.58971,-0.7888783 -0.62686,7.4e-6 -1.16871,0.2722631 -1.62557,0.8167679 -0.45686,0.5445181 -0.68529,1.3320675 -0.68529,2.3626507 z"
       id="path15070" />
    <path
       d="m 122.55648,7.4511833 1.48214,0.1832747 c -0.23375,0.8659085 -0.6667,1.5379153 -1.29886,2.0160224 -0.63217,0.4781076 -1.43964,0.7171616 -2.42242,0.7171616 -1.23777,0 -2.21922,-0.3811577 -2.94435,-1.1434747 -0.72513,-0.762315 -1.08769,-1.8314167 -1.08769,-3.2073082 0,-1.423694 0.36655,-2.5286537 1.09965,-3.3148825 0.73309,-0.7862139 1.684,-1.1793246 2.85271,-1.1793332 1.13152,8.6e-6 2.05586,0.3851508 2.77303,1.1554278 0.71715,0.7702919 1.07573,1.8540024 1.07574,3.2511348 -10e-6,0.085001 -0.003,0.2124965 -0.008,0.3824864 l -6.31103,0 c 0.0531,0.9296575 0.31608,1.6415066 0.78888,2.1355493 0.47279,0.4940463 1.06246,0.7410685 1.769,0.7410675 0.52592,10e-7 0.97481,-0.1381189 1.34667,-0.4143603 0.37186,-0.2762385 0.66669,-0.7171599 0.8845,-1.3227656 z m -4.70936,-2.3188241 4.7253,0 c -0.0637,-0.711844 -0.24437,-1.2457308 -0.54186,-1.601662 -0.45686,-0.5524732 -1.04918,-0.8287132 -1.77696,-0.8287206 -0.65873,7.4e-6 -1.21254,0.2204682 -1.66143,0.6613828 -0.44889,0.4409282 -0.69724,1.0305942 -0.74505,1.7689998 z"
       id="path15072" />
    <path
       d="m 125.81559,10.176399 0,-11.6817734 1.43432,0 0,11.6817734 z"
       id="path15074" />
  </g>
</svg>
