<?xml version="1.0" encoding="UTF-8" standalone="no"?>
<svg
   xmlns:dc="http://purl.org/dc/elements/1.1/"
   xmlns:cc="http://creativecommons.org/ns#"
   xmlns:rdf="http://www.w3.org/1999/02/22-rdf-syntax-ns#"
   xmlns:svg="http://www.w3.org/2000/svg"
   xmlns="http://www.w3.org/2000/svg"
   id="svg2"
   height="136.53334"
   width="136.53334"
   version="1.0">
  <defs
     id="defs4" />
  <metadata
     id="metadata7">
    <rdf:RDF>
      <cc:Work
         rdf:about="">
        <dc:format>image/svg+xml</dc:format>
        <dc:type
           rdf:resource="http://purl.org/dc/dcmitype/StillImage" />
        <dc:title></dc:title>
      </cc:Work>
    </rdf:RDF>
  </metadata>
  <g
     transform="translate(0,10.850524)"
     id="g3027">
    <path
       style="fill:#800000;fill-opacity:1;fill-rule:nonzero;stroke:none;stroke-width:1.06666672"
       id="path3084"
       d="M 14.861333,85.24 V 82.157333 C 16.174667,81.944 17.216,81.657333 17.986667,81.292 18.752,80.938667 19.32,80.433333 19.7,79.777333 c 0.374667,-0.652 0.614667,-1.485333 0.708,-2.5 0.09467,-1.010666 0.141333,-2.266666 0.141333,-3.761333 V 26.938667 h -3.808 c -1.885333,0.0053 -3.328,0.224 -4.328,0.656 C 11.408,28.032 10.538667,28.714667 9.804,29.646667 9.0653333,30.584 8.4293333,31.84 7.8986667,33.406667 7.3613333,34.985333 6.924,36.474667 6.58,37.870667 H 0.13733333 v -16.396 H 55.497333 v 16.396 h -6.442666 c -0.598667,-2.114667 -1.068,-3.672 -1.412,-4.672 C 47.298667,32.209333 46.913333,31.36 46.492,30.652 46.065333,29.954667 45.617333,29.370667 45.148,28.901333 44.674667,28.438667 44.174667,28.064 43.642667,27.782667 c -0.530667,-0.276 -1.197334,-0.485334 -2,-0.630667 -0.801334,-0.136 -1.844,-0.208 -3.125334,-0.213333 H 35.132 V 73.516 c -0.0053,1.652 0.04267,2.906667 0.141333,3.761333 0.088,0.858667 0.26,1.552 0.516,2.077334 0.244,0.532 0.552,0.958666 0.916,1.286666 0.36,0.328 0.86,0.625334 1.505334,0.885334 0.64,0.270666 1.510666,0.48 2.609333,0.630666 V 85.24 Z" />
    <path
       style="fill:#800000;fill-opacity:1;fill-rule:nonzero;stroke:none;stroke-width:1.06666672"
       id="path3086"
       d="M 84.737333,47.026667 V 61.881333 H 78.294667 C 77.253333,58.928 76.378667,56.928 75.66,55.881333 74.941333,54.84 74.076,54.010667 73.076,53.401333 72.065333,52.797333 70.357333,52.496 67.945333,52.490667 H 57.696 V 74.912 h 6.208 c 1.374667,0.0053 2.458667,-0.186667 3.245333,-0.582667 0.781334,-0.385333 1.432,-1.032 1.953334,-1.937333 0.514666,-0.896 1.009333,-2.297333 1.478666,-4.204 h 5.317334 V 87.152 H 70.581333 C 70.144,85.349333 69.654667,83.974667 69.122667,83.021333 c -0.536,-0.948 -1.172,-1.624 -1.905334,-2.030666 -0.74,-0.401334 -1.844,-0.604 -3.313333,-0.609334 h -6.208 v 24.947997 h 10.202667 c 1.094666,0.005 2.021333,-0.068 2.776,-0.208 0.750666,-0.14133 1.422666,-0.38133 2.021333,-0.724 0.593333,-0.33866 1.166667,-0.808 1.718667,-1.40133 0.546666,-0.59467 1.030666,-1.22933 1.458666,-1.91733 0.416,-0.68134 0.864,-1.588003 1.338667,-2.713337 0.468,-1.12 0.984,-2.661333 1.552,-4.625333 h 6.448 l -0.896,17.052 H 38.081333 v -3.08267 c 1.156,-0.308 2.073334,-0.64133 2.750667,-1.00533 0.670667,-0.35467 1.170667,-0.85467 1.504,-1.49467 0.329333,-0.636 0.542667,-1.44266 0.636,-2.42666 0.09333,-0.98 0.14,-2.21867 0.14,-3.71467 V 58.797333 c 0,-1.457333 -0.04133,-2.692 -0.118667,-3.692 -0.07867,-0.994666 -0.281333,-1.802666 -0.609333,-2.428 -0.333333,-0.618666 -0.833333,-1.124 -1.505333,-1.514666 -0.677334,-0.390667 -1.609334,-0.74 -2.797334,-1.052 v -3.084 z" />
    <path
       style="fill:#800000;fill-opacity:1;fill-rule:nonzero;stroke:none;stroke-width:1.06666672"
       id="path3088"
       d="m 106.19867,21.98 v 3.084 c -1.47467,0.156 -2.516,0.489333 -3.12534,1 -0.61466,0.52 -0.92266,1.306667 -0.91733,2.358667 -0.005,0.536 0.104,1.136 0.328,1.802666 0.21467,0.672 0.57333,1.473334 1.07867,2.405334 0.5,0.937333 1.34933,2.401333 2.54133,4.390666 l 4.37467,7.24 L 116.172,35.944 c 1.25067,-1.833333 2.088,-3.24 2.516,-4.224 0.42133,-0.98 0.63467,-2.032 0.63467,-3.156 0,-0.990667 -0.348,-1.792 -1.036,-2.406667 -0.69334,-0.604 -1.64534,-0.969333 -2.86934,-1.093333 V 21.98 H 134.844 v 3.130667 c -0.912,0.249333 -1.776,0.645333 -2.588,1.186666 -0.81867,0.552 -1.756,1.453334 -2.81867,2.713334 -1.068,1.261333 -2.776,3.557333 -5.12933,6.890666 L 114.15067,50.288 129.484,75.422667 c 0.52667,0.844 1.068,1.677333 1.62,2.5 0.54667,0.828 1.07867,1.557333 1.59867,2.193333 0.516,0.64 0.96933,1.114667 1.36533,1.426667 0.38533,0.312 0.77067,0.557333 1.15067,0.724 0.37466,0.177333 0.76533,0.306666 1.17733,0.396 v 3.082666 h -26.15067 v -3.082666 c 1.37467,-0.152 2.39067,-0.48 3.05734,-0.98 0.656,-0.5 0.98933,-1.290667 0.98933,-2.385334 0,-0.364 -0.0574,-0.770666 -0.16667,-1.213333 -0.10933,-0.432 -0.29733,-0.962667 -0.56266,-1.588 -0.27067,-0.62 -0.536,-1.172 -0.80267,-1.656 -0.27067,-0.48 -0.812,-1.406667 -1.61867,-2.781333 L 104.59867,61.36 96.932,72.621333 c -0.593333,0.905334 -1.098667,1.733334 -1.505333,2.473334 -0.410667,0.749333 -0.692,1.432 -0.842667,2.057333 -0.161333,0.625333 -0.24,1.358667 -0.234667,2.192 -0.0053,0.844 0.333334,1.573333 1.010667,2.198667 0.672,0.625333 1.634667,1 2.890667,1.12 v 3.082666 H 78.781333 v -3.082666 c 1.030667,-0.308 1.978667,-0.781334 2.844,-1.422667 0.858667,-0.634667 1.797334,-1.562667 2.817334,-2.781333 1.016,-1.213334 2.422666,-3.098667 4.213333,-5.656 l 12.276,-17.468 L 89.078667,35.761333 C 87.792,33.646667 86.688,31.886667 85.76,30.48 c -0.926667,-1.401333 -1.702667,-2.464 -2.328,-3.197333 -0.624,-0.729334 -1.181333,-1.256 -1.666667,-1.568 C 81.276,25.401333 80.702667,25.188 80.046667,25.064 V 21.98 Z" />
  </g>
</svg>
